<svg width="12" height="14" viewBox="0 0 12 14" fill="none" xmlns="http://www.w3.org/2000/svg">
<path d="M2.64109 0.771797H9.20993C9.1693 0.269235 8.84424 0 8.22122 0H3.6298C3.00677 0 2.68171 0.269235 2.64109 0.771797ZM1.43567 2.42906H10.3544C10.2528 1.8906 9.96162 1.58547 9.28442 1.58547H2.51241C1.82844 1.58547 1.53725 1.8906 1.43567 2.42906ZM2.12641 14H10.0768C11.2889 14 12 13.3778 12 12.1453V5.25299C12 4.02052 11.2821 3.39829 9.87359 3.39829H2.12641C0.711065 3.39829 0 4.01453 0 5.25299V12.1453C0 13.3778 0.711065 14 2.12641 14ZM2.13995 13.0367C1.46276 13.0367 1.09029 12.7137 1.09029 12.0915V5.30085C1.09029 4.67864 1.46276 4.36154 2.13995 4.36154H9.85327C10.5237 4.36154 10.9097 4.67864 10.9097 5.30085V12.0915C10.9097 12.7137 10.5237 13.0367 10.0564 13.0367H2.13995Z" fill="#FF293F"/>
</svg>
