<svg width="16" height="16" viewBox="0 0 16 16" fill="none" xmlns="http://www.w3.org/2000/svg">
<path d="M7.99613 16C12.3808 16 16 12.3791 16 8C16 3.62089 12.3731 0 7.98839 0C3.6114 0 0 3.62089 0 8C0 12.3791 3.61914 16 7.99613 16ZM7.99613 14.4061C4.44659 14.4061 1.60851 11.5513 1.60851 8C1.60851 4.44874 4.44659 1.60154 7.98839 1.60154C11.5379 1.60154 14.3915 4.44874 14.3993 8C14.4069 11.5513 11.5457 14.4061 7.99613 14.4061ZM7.99613 4.03869C7.60174 4.03869 7.30787 4.31721 7.30787 4.7118V8.3559L7.37748 9.93426L6.68149 9.07545L5.81537 8.17021C5.69937 8.04641 5.53697 7.96905 5.34364 7.96905C4.98019 7.96905 4.70952 8.23984 4.70952 8.59578C4.70952 8.78143 4.76365 8.93619 4.89512 9.0677L7.44707 11.6518C7.62494 11.8298 7.78734 11.9149 7.99613 11.9149C8.21266 11.9149 8.39056 11.822 8.5529 11.6518L11.1049 9.0677C11.2286 8.93619 11.2905 8.78143 11.2905 8.59578C11.2905 8.23984 11.0198 7.96905 10.6563 7.96905C10.463 7.96905 10.3007 8.03868 10.1846 8.17021L9.32621 9.0677L8.6225 9.94201L8.69209 8.3559V4.7118C8.69209 4.31721 8.39822 4.03869 7.99613 4.03869Z" fill="#FF0F00"/>
</svg>
