<?xml version="1.0" encoding="utf-8"?>
<!-- Generator: Adobe Illustrator 22.0.1, SVG Export Plug-In . SVG Version: 6.00 Build 0)  -->
<svg version="1.1" id="Layer_1" xmlns="http://www.w3.org/2000/svg" xmlns:xlink="http://www.w3.org/1999/xlink" x="0px" y="0px"
	 viewBox="0 0 100 100" style="enable-background:new 0 0 100 100;" xml:space="preserve">
<g>
	<path d="M78,18H22c-2.7,0-5,2.2-5,5V79c0,2.7,2.2,5,5,5H78c2.7,0,5-2.2,5-5V23C83,20.2,80.8,18,78,18z M23.3,80l6.9-8.9
		c0.6-0.7,1.4-1.1,2.3-1.1s1.8,0.4,2.3,1.1l6.9,8.9H23.3z M79,79c0,0.5-0.4,1-1,1H46.8l-5.9-7.6l13.7-17.7c0.5-0.7,1.4-1.1,2.2-1.1
		c0.9,0,1.7,0.4,2.3,1L79,78.1V79z M79,71.9L62.1,52c-1.4-1.6-3.3-2.5-5.4-2.4c-2.1,0-4,1-5.3,2.7l-13,16.8L38,68.6
		c-1.3-1.7-3.3-2.7-5.5-2.7s-4.2,1-5.5,2.7l-6,7.8V23c0-0.5,0.4-1,1-1H78c0.5,0,1,0.4,1,1V71.9z"/>
	<path d="M36.5,40c-4.1,0-7.5,3.4-7.5,7.5s3.4,7.5,7.5,7.5s7.5-3.4,7.5-7.5S40.6,40,36.5,40z M36.5,51c-1.9,0-3.5-1.6-3.5-3.5
		s1.6-3.5,3.5-3.5s3.5,1.6,3.5,3.5S38.4,51,36.5,51z"/>
</g>
</svg>
