<svg width="6" height="10" viewBox="0 0 6 10" fill="none" xmlns="http://www.w3.org/2000/svg">
<path d="M5.42744 4.63232C5.42744 4.45437 5.35804 4.30257 5.2193 4.16649L1.05671 0.172733C0.939274 0.0575771 0.795186 0 0.624381 0C0.277549 0 0 0.261713 0 0.60194C0 0.769437 0.0694028 0.921229 0.186774 1.04162L3.94381 4.63232L0.186774 8.22303C0.0747462 8.33821 0 8.48995 0 8.65748C0 9.00295 0.277549 9.26463 0.624381 9.26463C0.795186 9.26463 0.939274 9.20704 1.05671 9.09192L5.2193 5.09816C5.36338 4.96207 5.42744 4.81027 5.42744 4.63232Z" fill="#C9C9CB"/>
</svg>
