<svg width="16" height="16" viewBox="0 0 16 16" fill="none" xmlns="http://www.w3.org/2000/svg">
<path d="M9.84864 1.10249L14.0731 5.25349C15.3945 3.97907 15.4762 2.28225 14.1695 1.0151C12.8703 -0.252052 11.1553 -0.186511 9.84864 1.10249ZM7.79953 15.0994C8.2153 15.0994 8.54939 14.7863 8.54939 14.3711L8.55682 9.04765L10.747 7.05955C11.6082 7.15426 12.5065 6.79739 13.2713 6.03998L9.04684 1.889C8.27468 2.64637 7.93316 3.51299 8.02972 4.36504L1.13997 11.6329C0.842997 11.9461 0.813306 12.3612 1.16967 12.7399L0.189668 13.9706C0.0708754 14.1163 0.0783006 14.3275 0.23421 14.4804L0.449511 14.6916C0.597996 14.8445 0.805881 14.8518 0.97664 14.728L2.22392 13.7594C2.60255 14.1163 3.02574 14.0799 3.34498 13.7959L7.04967 10.424V14.3711C7.04967 14.7863 7.37633 15.0994 7.79953 15.0994ZM2.04573 12.2592L8.49 5.58119C8.6162 5.78511 8.75727 5.96715 8.93542 6.14927C9.10622 6.32402 9.29924 6.47697 9.48482 6.59347L2.71392 12.9147L2.04573 12.2592Z" fill="#F43140"/>
</svg>
