<svg width="8" height="13" viewBox="0 0 8 13" fill="none" xmlns="http://www.w3.org/2000/svg">
<path d="M7.83707 2.9224V0.506043C7.83707 0.165438 7.56084 -0.0530631 7.23323 0.0112024L3.93139 0.730971C3.52026 0.82094 3.29542 1.04587 3.29542 1.40576L3.30828 8.55203C3.34039 8.86693 3.19265 9.07257 2.90999 9.13041L1.8886 9.34249C0.603838 9.61241 0 10.2679 0 11.2383C0 12.2216 0.758016 12.9092 1.82437 12.9092C2.76867 12.9092 4.18192 12.2151 4.18192 10.3451V4.46477C4.18192 4.12417 4.24615 4.05347 4.54807 3.98921L7.48376 3.34656C7.70217 3.30158 7.83707 3.13449 7.83707 2.9224Z" fill="#FF293F"/>
</svg>
