<svg width="20" height="19" viewBox="0 0 20 19" fill="none" xmlns="http://www.w3.org/2000/svg">
<path d="M5.26465 18.5976C5.63379 18.5976 5.90628 18.4218 6.34568 18.0263L9.58888 15.0996L15.3369 15.1084C17.9824 15.1084 19.4678 13.5791 19.4678 10.9687V4.13965C19.4678 1.5293 17.9824 0 15.3369 0H4.13086C1.49414 0 0 1.5293 0 4.13965V10.9687C0 13.5879 1.53808 15.0996 4.06933 15.0996H4.4209V17.6484C4.4209 18.2285 4.72851 18.5976 5.26465 18.5976ZM5.40527 6.63573C5.40527 5.55473 6.22268 4.78125 7.32128 4.78125C8.52538 4.78125 9.31638 5.75683 9.31638 7.00493C9.31638 9.15823 7.55858 10.3008 6.60938 10.3008C6.34568 10.3008 6.14358 10.125 6.14358 9.87893C6.14358 9.66793 6.24898 9.51853 6.56538 9.43943C7.23338 9.27243 7.89258 8.78023 8.18258 8.09473H8.07718C7.83988 8.37593 7.46188 8.46383 7.06638 8.46383C6.05568 8.46383 5.40527 7.67283 5.40527 6.63573ZM10.2217 6.63573C10.2217 5.55473 11.0391 4.78125 12.1289 4.78125C13.333 4.78125 14.1328 5.75683 14.1328 7.00493C14.1328 9.15823 12.3838 10.3008 11.4258 10.3008C11.1621 10.3008 10.9688 10.125 10.9688 9.87893C10.9688 9.66793 11.0742 9.51853 11.3819 9.43943C12.0498 9.27243 12.709 8.78023 12.999 8.09473H12.8936C12.6563 8.37593 12.2783 8.46383 11.874 8.46383C10.8721 8.46383 10.2217 7.67283 10.2217 6.63573Z" fill="white" fill-opacity="0.68"/>
</svg>
