<svg width="14" height="13" viewBox="0 0 14 13" fill="none" xmlns="http://www.w3.org/2000/svg">
<path d="M13.0982 2.9224V0.506043C13.0982 0.165438 12.822 -0.0530631 12.4943 0.0112024L9.1925 0.730971C8.78137 0.82094 8.55654 1.04587 8.55654 1.40576L8.56939 8.55203C8.6015 8.86693 8.45376 9.07257 8.17111 9.13041L7.14972 9.34249C5.86495 9.61241 5.26111 10.2679 5.26111 11.2383C5.26111 12.2216 6.01913 12.9092 7.08549 12.9092C8.02978 12.9092 9.44303 12.2151 9.44303 10.3451V4.46477C9.44303 4.12417 9.50728 4.05347 9.80916 3.98921L12.7449 3.34656C12.9633 3.30158 13.0982 3.13449 13.0982 2.9224ZM0.436818 3.22445H6.17973C6.4174 3.22445 6.61655 3.02524 6.61655 2.78745C6.61655 2.54967 6.4174 2.35688 6.17973 2.35688H0.436818C0.192715 2.35688 0 2.54967 0 2.78745C0 3.02524 0.192715 3.22445 0.436818 3.22445ZM0.436818 5.51229H6.17973C6.42383 5.51229 6.61655 5.31307 6.61655 5.06886C6.61655 4.83108 6.4174 4.64472 6.17973 4.64472H0.436818C0.192715 4.64472 0 4.83108 0 5.06886C0 5.31307 0.186291 5.51229 0.436818 5.51229ZM0.436818 7.80013H6.17973C6.42383 7.80013 6.61655 7.60734 6.61655 7.36313C6.61655 7.12534 6.4174 6.93255 6.17973 6.93255H0.436818C0.192715 6.93255 0 7.12534 0 7.36313C0 7.60734 0.186291 7.80013 0.436818 7.80013Z" fill="#FF0000"/>
</svg>
